<svg width="42" height="42" viewBox="0 0 42 42" fill="none" xmlns="http://www.w3.org/2000/svg">
<circle cx="21" cy="21" r="21" fill="#51D130"/>
<path d="M11.8471 20.6682L11.7728 20.8336C11.5274 21.3504 11.4004 21.9157 11.4013 22.4882C11.4013 23.67 11.9341 24.7291 12.7697 25.4318C11.584 25.9237 10.5703 26.757 9.85653 27.8265C9.14278 28.8961 8.76103 30.1538 8.75953 31.4409C8.73234 31.9064 8.71875 32.2291 8.71875 32.4082C8.71875 32.6764 8.78763 32.81 9.09575 32.8627L9.34316 32.8973C11.2064 33.1464 13.1702 33.2727 15.1794 33.2727C17.1886 33.2727 19.1515 33.1464 21.0157 32.8973L21.206 32.8718C24.3026 32.4427 26.9634 31.6982 28.9091 30.7136C31.6197 29.3427 32.2477 27.85 32.2803 26.8091L32.2812 26.7036C32.274 22.7582 29.7474 19.4009 26.2474 18.1964C26.9442 17.7198 27.5143 17.0795 27.9079 16.3313C28.3016 15.5831 28.5068 14.7496 28.5058 13.9036C28.5058 11.0491 26.213 8.72726 23.3955 8.72726C20.577 8.72726 18.2842 11.0491 18.2842 13.9036C18.2842 15.6882 19.1805 17.2645 20.5408 18.1954C19.5421 18.5387 18.6129 19.0591 17.7976 19.7318C17.0969 19.0469 16.1577 18.6631 15.1794 18.6618C14.1943 18.6618 13.2582 19.0527 12.5612 19.7318C12.2701 19.9993 12.0283 20.3163 11.8471 20.6682ZM15.1794 26.3136C17.9516 26.3136 20.2118 28.5745 20.2571 31.3718V31.6236C18.6259 31.8164 16.9221 31.9145 15.1794 31.9145C13.4938 31.9145 11.8426 31.8218 10.2594 31.6418L10.1017 31.6236V31.4564C10.1017 28.62 12.3791 26.3136 15.1794 26.3136ZM23.3955 19.08C27.4854 19.08 30.8249 22.3927 30.9373 26.5073L30.94 26.73C30.9355 27.6591 30.002 28.6427 28.3101 29.4982C26.6117 30.3573 24.3035 31.0245 21.5984 31.4418C21.5972 30.1548 21.2158 28.897 20.5024 27.8273C19.789 26.7576 18.7755 25.924 17.59 25.4318C18.0188 25.0712 18.3633 24.6206 18.5995 24.1119C18.8356 23.6031 18.9576 23.0485 18.9567 22.4873C18.9567 21.9082 18.8298 21.3464 18.586 20.8327C19.9333 19.6985 21.6366 19.0777 23.3955 19.08ZM15.1803 20.02C15.9778 20.02 16.7264 20.4164 17.1813 21.0809C17.4668 21.4945 17.6163 21.9809 17.6163 22.4873C17.6163 23.8482 16.5243 24.9554 15.1803 24.9554C13.8373 24.9554 12.7443 23.8482 12.7443 22.4873C12.7443 21.9954 12.8866 21.5218 13.1557 21.1145L13.1793 21.0809C13.4021 20.7546 13.7007 20.4875 14.0493 20.3027C14.3979 20.1178 14.786 20.0208 15.1803 20.02ZM23.3964 10.0864C25.4753 10.0864 27.1664 11.7991 27.1664 13.9045C27.1664 16.0091 25.4753 17.7209 23.3964 17.7209C21.3174 17.7209 19.6264 16.0091 19.6264 13.9036C19.6264 11.7991 21.3174 10.0864 23.3964 10.0864Z" fill="white" stroke="white" stroke-width="0.3"/>
</svg>
