<svg width="42" height="42" viewBox="0 0 42 42" fill="none" xmlns="http://www.w3.org/2000/svg">
<circle cx="21" cy="21" r="21" fill="#C93898"/>
<path d="M18.9741 7.93547C19.1907 7.93418 19.3989 8.01948 19.5531 8.17263C19.7072 8.32578 19.7946 8.53425 19.7962 8.75224V33.2477C19.7944 33.4656 19.7068 33.6738 19.5527 33.8267C19.3986 33.9797 19.1905 34.0648 18.9741 34.0635H10.7462C10.5296 34.0651 10.3212 33.98 10.1669 33.8271C10.0126 33.6741 9.92487 33.4657 9.9231 33.2477V8.75224C9.92487 8.53425 10.0126 8.32588 10.1669 8.17291C10.3212 8.01994 10.5296 7.93489 10.7462 7.93644L18.9741 7.93547ZM25.7943 8.17257C25.9494 8.02012 26.1577 7.93478 26.3745 7.93478C26.5914 7.93478 26.7996 8.02012 26.9548 8.17257L31.0683 12.2555L29.9087 13.4071L27.2019 10.7206V31.2793L29.9164 28.5929L31.0769 29.7445L26.9635 33.8274C26.8083 33.9799 26.6 34.0652 26.3832 34.0652C26.1663 34.0652 25.9581 33.9799 25.8029 33.8274L21.6885 29.7445L22.8491 28.5929L25.5558 31.2793V10.7206L22.8404 13.4071L21.6808 12.2555L25.7943 8.17257ZM18.151 9.56902H11.5683V12.0193H15.6827V13.6529H11.5673V16.1013H14.0356V17.7348H11.5683V20.1842H15.6827V21.8177H11.5673V24.2661H14.0356V25.8997H11.5683V28.349H15.6827V29.9826H11.5673V32.431H18.15V9.56999L18.151 9.56902Z" fill="white"/>
</svg>
