<svg width="42" height="42" viewBox="0 0 42 42" fill="none" xmlns="http://www.w3.org/2000/svg">
<circle cx="21" cy="21" r="21" fill="#3037D1"/>
<path d="M21 8.14285C28.1068 8.14285 33.8571 13.8943 33.8571 21C33.8571 28.0361 28.2203 33.7425 21.2132 33.855L21 33.8571H9.14675C8.88352 33.8569 8.63089 33.7534 8.44316 33.5689C8.25543 33.3843 8.14759 33.1335 8.14282 32.8704V21C8.14282 13.8932 13.8943 8.14285 21 8.14285ZM21 10.1518C18.1535 10.1503 15.4206 11.2682 13.3912 13.2641C11.3618 15.26 10.1987 17.9739 10.1528 20.82L10.1518 21V31.8482H21C22.4248 31.8489 23.8357 31.5688 25.1522 31.0239C26.4687 30.4789 27.6649 29.6799 28.6724 28.6724C29.6799 27.6649 30.4789 26.4687 31.0238 25.1523C31.5688 23.8358 31.8489 22.4248 31.8482 21C31.8489 19.5752 31.5688 18.1642 31.0238 16.8477C30.4789 15.5312 29.6799 14.3351 28.6724 13.3276C27.6649 12.3201 26.4687 11.521 25.1522 10.9761C23.8357 10.4312 22.4248 10.1511 21 10.1518ZM20.6057 25.38C20.9625 25.3831 21.3038 25.5262 21.5561 25.7785C21.8084 26.0308 21.9515 26.3721 21.9546 26.7289C21.9513 27.0855 21.808 27.4266 21.5557 27.6787C21.3035 27.9307 20.9623 28.0737 20.6057 28.0768C19.8535 28.0768 19.276 27.4457 19.276 26.7289C19.276 25.9929 19.8707 25.38 20.6057 25.38ZM20.8339 15.1746C23.0743 15.1746 24.5625 16.4175 24.5625 18.0632C24.5625 19.7089 23.0743 20.8993 22.6018 21.2668C21.6964 21.9739 21.6267 22.4807 21.6214 23.295V23.4557C21.6214 23.7879 21.4468 24.1725 20.5885 24.1725C19.8707 24.1725 19.6253 23.91 19.6253 22.9993C19.6253 21.4939 20.2907 20.7761 20.7985 20.3389C21.3771 19.8482 22.3564 19.3061 22.3564 18.36C22.3564 17.5554 21.6567 17.1707 20.7814 17.1707C18.9953 17.1707 19.381 18.5175 18.435 18.5175C17.9635 18.5175 17.385 18.2025 17.385 17.52C17.385 16.575 18.4703 15.1736 20.8339 15.1736V15.1746Z" fill="white"/>
</svg>
